<svg xmlns="http://www.w3.org/2000/svg" width="100" height="100" viewBox="0 0 100 100">
  <defs>
    <style>
      .cls-1, .cls-3 {
        fill-rule: evenodd;
      }

      .cls-2 {
        fill: #7f7d7d;
      }

      .cls-3 {
        fill: #fff;
      }
    </style>
  </defs>
  <path id="Polygon_1" data-name="Polygon 1" class="cls-1" d="M81.088,96.514L50.131,74.041,19.283,96.662l11.8-36.391L0.043,37.918,38.294,37.9,49.957,1.463l11.838,36.38,38.251-.166L69.11,60.18Z"/>
  <path class="cls-1" d="M50,12.1A42.293,42.293,0,1,1,7.707,54.39,42.293,42.293,0,0,1,50,12.1Z"/>
  <circle id="Ellipse_1_copy_2" data-name="Ellipse 1 copy 2" class="cls-2" cx="49.953" cy="54.344" r="37.453"/>
  <path id="Ellipse_1_copy_3" data-name="Ellipse 1 copy 3" class="cls-1" d="M49.951,22.146a32.2,32.2,0,1,1-32.2,32.2A32.2,32.2,0,0,1,49.951,22.146Z"/>
  <path id="S" class="cls-3" d="M31.4,57.41a16.5,16.5,0,0,0,8.149,2.037c7.533,0,11.181-4.264,11.181-9.191,0-4.69-2.748-7.3-8.149-9.381-4.406-1.706-6.349-3.174-6.349-6.159,0-2.179,1.658-4.785,6.017-4.785a12.717,12.717,0,0,1,6.064,1.516l1.137-3.364A14.51,14.51,0,0,0,42.4,26.52c-6.207,0-10.328,3.7-10.328,8.67,0,4.5,3.222,7.2,8.433,9.049,4.311,1.658,6.017,3.364,6.017,6.349,0,3.222-2.464,5.448-6.68,5.448a14.608,14.608,0,0,1-7.391-2.085Z"/>
  <path id="T" class="cls-3" d="M58.982,80.242h4.169V51.815h9.76V48.309H49.27v3.506h9.712V80.242Z"/>
</svg>
